<svg width="500" height="500" viewBox="0 0 500 500" fill="none" xmlns="http://www.w3.org/2000/svg">
<rect width="500" height="500" rx="50" fill="url(#paint0_linear_299_7)"/>
<path d="M150.4 316.8C136.533 316.8 124.667 313.867 114.8 308C104.933 302.133 97.3333 293.8 92 283C86.8 272.2 84.2 259.333 84.2 244.4C84.2 233.2 85.6667 223.2 88.6 214.4C91.6667 205.467 96 197.933 101.6 191.8C107.333 185.533 114.333 180.733 122.6 177.4C130.867 173.933 140.133 172.2 150.4 172.2C158.667 172.2 166.533 173.4 174 175.8C181.467 178.067 187.933 181.467 193.4 186C195.133 187.333 196.267 188.867 196.8 190.6C197.467 192.2 197.533 193.8 197 195.4C196.6 196.867 195.8 198.133 194.6 199.2C193.533 200.133 192.2 200.6 190.6 200.6C189 200.6 187.2 199.933 185.2 198.6C180.4 194.733 175.133 191.867 169.4 190C163.667 188.133 157.467 187.2 150.8 187.2C140.267 187.2 131.333 189.467 124 194C116.667 198.4 111.133 204.867 107.4 213.4C103.667 221.933 101.8 232.267 101.8 244.4C101.8 256.533 103.667 266.933 107.4 275.6C111.133 284.133 116.667 290.667 124 295.2C131.333 299.6 140.267 301.8 150.8 301.8C157.333 301.8 163.533 300.867 169.4 299C175.267 297 180.667 294.067 185.6 290.2C187.6 288.867 189.4 288.267 191 288.4C192.6 288.4 193.933 288.867 195 289.8C196.067 290.733 196.8 291.933 197.2 293.4C197.733 294.867 197.733 296.4 197.2 298C196.8 299.6 195.8 301 194.2 302.2C188.6 307 182 310.667 174.4 313.2C166.933 315.6 158.933 316.8 150.4 316.8ZM249.245 316.8C242.579 316.8 236.579 315.533 231.245 313C226.045 310.333 221.912 306.733 218.845 302.2C215.779 297.667 214.245 292.6 214.245 287C214.245 279.8 216.045 274.133 219.645 270C223.379 265.867 229.445 262.933 237.845 261.2C246.379 259.467 257.979 258.6 272.645 258.6H281.645V269.2H272.845C262.045 269.2 253.512 269.733 247.245 270.8C241.112 271.733 236.779 273.4 234.245 275.8C231.845 278.2 230.645 281.6 230.645 286C230.645 291.467 232.512 295.933 236.245 299.4C240.112 302.867 245.312 304.6 251.845 304.6C257.179 304.6 261.845 303.333 265.845 300.8C269.979 298.267 273.179 294.8 275.445 290.4C277.845 286 279.045 280.933 279.045 275.2V252.4C279.045 244.133 277.379 238.2 274.045 234.6C270.712 230.867 265.245 229 257.645 229C252.979 229 248.312 229.6 243.645 230.8C238.979 232 234.045 233.933 228.845 236.6C226.979 237.533 225.379 237.867 224.045 237.6C222.712 237.2 221.645 236.467 220.845 235.4C220.045 234.333 219.579 233.133 219.445 231.8C219.312 230.333 219.579 228.933 220.245 227.6C221.045 226.267 222.245 225.2 223.845 224.4C229.712 221.467 235.512 219.333 241.245 218C246.979 216.667 252.445 216 257.645 216C266.045 216 272.979 217.4 278.445 220.2C283.912 222.867 287.979 227 290.645 232.6C293.312 238.067 294.645 245.133 294.645 253.8V308C294.645 310.667 293.979 312.733 292.645 314.2C291.445 315.667 289.645 316.4 287.245 316.4C284.712 316.4 282.779 315.667 281.445 314.2C280.112 312.733 279.445 310.667 279.445 308V292.4H281.245C280.179 297.467 278.112 301.8 275.045 305.4C272.112 309 268.445 311.8 264.045 313.8C259.645 315.8 254.712 316.8 249.245 316.8ZM332.7 352.4C330.033 352.4 328.033 351.667 326.7 350.2C325.367 348.867 324.7 346.867 324.7 344.2V224.6C324.7 221.933 325.367 219.933 326.7 218.6C328.033 217.133 329.967 216.4 332.5 216.4C335.167 216.4 337.167 217.133 338.5 218.6C339.967 219.933 340.7 221.933 340.7 224.6V243.6L338.5 240.8C340.633 233.2 344.833 227.2 351.1 222.8C357.5 218.267 365.1 216 373.9 216C382.567 216 390.1 218.067 396.5 222.2C403.033 226.2 408.033 232 411.5 239.6C415.1 247.067 416.9 256 416.9 266.4C416.9 276.667 415.1 285.6 411.5 293.2C408.033 300.667 403.1 306.467 396.7 310.6C390.3 314.733 382.7 316.8 373.9 316.8C365.1 316.8 357.567 314.6 351.3 310.2C345.033 305.667 340.767 299.667 338.5 292.2H340.9V344.2C340.9 346.867 340.167 348.867 338.7 350.2C337.233 351.667 335.233 352.4 332.7 352.4ZM370.5 303.8C376.633 303.8 381.9 302.333 386.3 299.4C390.833 296.467 394.3 292.2 396.7 286.6C399.233 281 400.5 274.267 400.5 266.4C400.5 254.267 397.767 245 392.3 238.6C386.967 232.2 379.7 229 370.5 229C364.5 229 359.233 230.467 354.7 233.4C350.167 236.2 346.633 240.4 344.1 246C341.7 251.467 340.5 258.267 340.5 266.4C340.5 278.4 343.233 287.667 348.7 294.2C354.167 300.6 361.433 303.8 370.5 303.8Z" fill="white"/>
<defs>
<linearGradient id="paint0_linear_299_7" x1="0" y1="0" x2="500" y2="500" gradientUnits="userSpaceOnUse">
<stop stop-color="#A756E1"/>
<stop offset="0.8" stop-color="#4E246C"/>
</linearGradient>
</defs>
</svg>
