<svg width="500" height="500" viewBox="0 0 500 500" fill="none" xmlns="http://www.w3.org/2000/svg">
<rect width="500" height="500" rx="50" fill="url(#paint0_linear_300_2)"/>
<path d="M114.8 321C112.133 321 110.067 320.267 108.6 318.8C107.133 317.2 106.4 315.067 106.4 312.4V187.6C106.4 184.8 107.067 182.667 108.4 181.2C109.867 179.733 111.933 179 114.6 179C117.267 179 119.267 179.733 120.6 181.2C122.067 182.667 122.8 184.8 122.8 187.6V306.6H188.4C190.8 306.6 192.667 307.267 194 308.6C195.333 309.8 196 311.533 196 313.8C196 316.067 195.333 317.867 194 319.2C192.667 320.4 190.8 321 188.4 321H114.8ZM220.794 322C218.127 322 216.127 321.267 214.794 319.8C213.46 318.2 212.794 316 212.794 313.2V231.4C212.794 228.6 213.46 226.467 214.794 225C216.127 223.533 218.127 222.8 220.794 222.8C223.327 222.8 225.327 223.533 226.794 225C228.26 226.467 228.994 228.6 228.994 231.4V313.2C228.994 316 228.26 318.2 226.794 319.8C225.46 321.267 223.46 322 220.794 322ZM220.794 200.4C217.46 200.4 214.86 199.533 212.994 197.8C211.127 195.933 210.194 193.467 210.194 190.4C210.194 187.2 211.127 184.8 212.994 183.2C214.86 181.467 217.46 180.6 220.794 180.6C224.26 180.6 226.86 181.467 228.594 183.2C230.46 184.8 231.394 187.2 231.394 190.4C231.394 193.467 230.46 195.933 228.594 197.8C226.86 199.533 224.26 200.4 220.794 200.4ZM292.078 322.8C286.078 322.8 280.011 322.067 273.878 320.6C267.878 319.133 262.278 316.6 257.078 313C255.745 312.067 254.811 311 254.278 309.8C253.745 308.467 253.545 307.2 253.678 306C253.945 304.667 254.478 303.533 255.278 302.6C256.211 301.667 257.278 301.133 258.478 301C259.811 300.733 261.278 301 262.878 301.8C268.078 305 273.078 307.267 277.878 308.6C282.811 309.8 287.678 310.4 292.478 310.4C300.078 310.4 305.811 309 309.678 306.2C313.545 303.4 315.478 299.6 315.478 294.8C315.478 291.067 314.211 288.133 311.678 286C309.145 283.733 305.145 282 299.678 280.8L281.478 276.8C273.078 275.067 266.811 272.067 262.678 267.8C258.678 263.533 256.678 258 256.678 251.2C256.678 245.2 258.211 240.067 261.278 235.8C264.478 231.4 268.945 228 274.678 225.6C280.411 223.2 287.078 222 294.678 222C300.545 222 306.078 222.8 311.278 224.4C316.611 225.867 321.411 228.267 325.678 231.6C327.011 232.533 327.878 233.667 328.278 235C328.811 236.2 328.878 237.467 328.478 238.8C328.211 240 327.611 241.067 326.678 242C325.745 242.8 324.611 243.267 323.278 243.4C321.945 243.533 320.545 243.133 319.078 242.2C315.078 239.533 311.011 237.6 306.878 236.4C302.745 235.067 298.678 234.4 294.678 234.4C287.211 234.4 281.545 235.867 277.678 238.8C273.811 241.733 271.878 245.6 271.878 250.4C271.878 254.133 273.078 257.2 275.478 259.6C277.878 262 281.611 263.733 286.678 264.8L304.878 268.6C313.545 270.467 320.011 273.467 324.278 277.6C328.678 281.6 330.878 287.067 330.878 294C330.878 302.8 327.345 309.8 320.278 315C313.211 320.2 303.811 322.8 292.078 322.8ZM393.591 322.8C385.991 322.8 379.591 321.467 374.391 318.8C369.324 316 365.524 312 362.991 306.8C360.457 301.467 359.191 295 359.191 287.4V236.4H345.791C343.524 236.4 341.791 235.867 340.591 234.8C339.391 233.6 338.791 232 338.791 230C338.791 228 339.391 226.467 340.591 225.4C341.791 224.333 343.524 223.8 345.791 223.8H359.191V200.8C359.191 198.133 359.924 196.133 361.391 194.8C362.857 193.333 364.857 192.6 367.391 192.6C369.924 192.6 371.857 193.333 373.191 194.8C374.657 196.133 375.391 198.133 375.391 200.8V223.8H400.591C402.857 223.8 404.591 224.333 405.791 225.4C406.991 226.467 407.591 228 407.591 230C407.591 232 406.991 233.6 405.791 234.8C404.591 235.867 402.857 236.4 400.591 236.4H375.391V285.8C375.391 293.4 376.991 299.2 380.191 303.2C383.391 307.067 388.591 309 395.791 309C398.324 309 400.457 308.733 402.191 308.2C404.057 307.667 405.591 307.4 406.791 307.4C407.991 307.267 408.991 307.667 409.791 308.6C410.591 309.533 410.991 311.133 410.991 313.4C410.991 315 410.657 316.467 409.991 317.8C409.457 319.133 408.457 320.067 406.991 320.6C405.391 321.133 403.257 321.6 400.591 322C398.057 322.533 395.724 322.8 393.591 322.8Z" fill="white"/>
<defs>
<linearGradient id="paint0_linear_300_2" x1="0" y1="0" x2="500" y2="500" gradientUnits="userSpaceOnUse">
<stop stop-color="#A756E1"/>
<stop offset="0.8" stop-color="#4E246C"/>
</linearGradient>
</defs>
</svg>
