<svg width="500" height="500" viewBox="0 0 500 500" fill="none" xmlns="http://www.w3.org/2000/svg">
<rect width="500" height="500" rx="50" fill="url(#paint0_linear_299_2)"/>
<path d="M107.6 316.4C104.933 316.4 102.867 315.667 101.4 314.2C100.067 312.6 99.4 310.467 99.4 307.8V182.4C99.4 179.6 100.133 177.533 101.6 176.2C103.067 174.733 105.133 174 107.8 174H155.2C170.267 174 181.867 177.533 190 184.6C198.133 191.667 202.2 201.733 202.2 214.8C202.2 223.067 200.333 230.267 196.6 236.4C193 242.4 187.667 247 180.6 250.2C173.533 253.267 165.067 254.8 155.2 254.8L157.2 252.2H161.2C166.4 252.2 170.933 253.533 174.8 256.2C178.667 258.867 182.2 263.133 185.4 269L204.6 304.8C205.667 306.667 206.133 308.533 206 310.4C206 312.133 205.4 313.6 204.2 314.8C203 315.867 201.267 316.4 199 316.4C196.733 316.4 194.867 315.867 193.4 314.8C191.933 313.733 190.667 312.2 189.6 310.2L167.8 269.8C164.733 264.067 161.2 260.267 157.2 258.4C153.2 256.4 147.933 255.4 141.4 255.4H115.8V307.8C115.8 310.467 115.133 312.6 113.8 314.2C112.467 315.667 110.4 316.4 107.6 316.4ZM115.8 242.4H152.8C163.733 242.4 172 240.133 177.6 235.6C183.2 230.933 186 224 186 214.8C186 205.867 183.2 199.133 177.6 194.6C172 189.933 163.733 187.6 152.8 187.6H115.8V242.4ZM272.641 316.8C262.374 316.8 253.507 314.8 246.041 310.8C238.707 306.667 232.974 300.867 228.841 293.4C224.841 285.933 222.841 277 222.841 266.6C222.841 256.467 224.841 247.667 228.841 240.2C232.841 232.6 238.307 226.667 245.241 222.4C252.307 218.133 260.441 216 269.641 216C276.174 216 282.041 217.133 287.241 219.4C292.441 221.533 296.841 224.667 300.441 228.8C304.174 232.933 306.974 237.933 308.841 243.8C310.841 249.667 311.841 256.267 311.841 263.6C311.841 265.733 311.241 267.333 310.041 268.4C308.841 269.333 307.107 269.8 304.841 269.8H235.241V259.2H301.041L297.841 261.8C297.841 254.6 296.774 248.533 294.641 243.6C292.507 238.533 289.374 234.667 285.241 232C281.241 229.333 276.174 228 270.041 228C263.241 228 257.441 229.6 252.641 232.8C247.974 235.867 244.441 240.2 242.041 245.8C239.641 251.267 238.441 257.667 238.441 265V266.2C238.441 278.467 241.374 287.8 247.241 294.2C253.241 300.6 261.707 303.8 272.641 303.8C277.174 303.8 281.641 303.2 286.041 302C290.574 300.8 294.974 298.8 299.241 296C301.107 294.8 302.774 294.267 304.241 294.4C305.841 294.4 307.107 294.867 308.041 295.8C308.974 296.6 309.574 297.667 309.841 299C310.241 300.2 310.107 301.533 309.441 303C308.907 304.467 307.774 305.733 306.041 306.8C301.641 310 296.441 312.467 290.441 314.2C284.441 315.933 278.507 316.8 272.641 316.8ZM368.086 316.8C362.086 316.8 356.019 316.067 349.886 314.6C343.886 313.133 338.286 310.6 333.086 307C331.753 306.067 330.819 305 330.286 303.8C329.753 302.467 329.553 301.2 329.686 300C329.953 298.667 330.486 297.533 331.286 296.6C332.219 295.667 333.286 295.133 334.486 295C335.819 294.733 337.286 295 338.886 295.8C344.086 299 349.086 301.267 353.886 302.6C358.819 303.8 363.686 304.4 368.486 304.4C376.086 304.4 381.819 303 385.686 300.2C389.553 297.4 391.486 293.6 391.486 288.8C391.486 285.067 390.219 282.133 387.686 280C385.153 277.733 381.153 276 375.686 274.8L357.486 270.8C349.086 269.067 342.819 266.067 338.686 261.8C334.686 257.533 332.686 252 332.686 245.2C332.686 239.2 334.219 234.067 337.286 229.8C340.486 225.4 344.953 222 350.686 219.6C356.419 217.2 363.086 216 370.686 216C376.553 216 382.086 216.8 387.286 218.4C392.619 219.867 397.419 222.267 401.686 225.6C403.019 226.533 403.886 227.667 404.286 229C404.819 230.2 404.886 231.467 404.486 232.8C404.219 234 403.619 235.067 402.686 236C401.753 236.8 400.619 237.267 399.286 237.4C397.953 237.533 396.553 237.133 395.086 236.2C391.086 233.533 387.019 231.6 382.886 230.4C378.753 229.067 374.686 228.4 370.686 228.4C363.219 228.4 357.553 229.867 353.686 232.8C349.819 235.733 347.886 239.6 347.886 244.4C347.886 248.133 349.086 251.2 351.486 253.6C353.886 256 357.619 257.733 362.686 258.8L380.886 262.6C389.553 264.467 396.019 267.467 400.286 271.6C404.686 275.6 406.886 281.067 406.886 288C406.886 296.8 403.353 303.8 396.286 309C389.219 314.2 379.819 316.8 368.086 316.8Z" fill="white"/>
<defs>
<linearGradient id="paint0_linear_299_2" x1="0" y1="0" x2="500" y2="500" gradientUnits="userSpaceOnUse">
<stop stop-color="#A756E1"/>
<stop offset="0.8" stop-color="#4E246C"/>
</linearGradient>
</defs>
</svg>
