<svg width="500" height="500" viewBox="0 0 500 500" fill="none" xmlns="http://www.w3.org/2000/svg">
<rect width="500" height="500" rx="50" fill="url(#paint0_linear_299_13)"/>
<path d="M96.6 322.4C93.9333 322.4 91.8667 321.667 90.4 320.2C89.0667 318.6 88.4 316.467 88.4 313.8V188.4C88.4 185.6 89.1333 183.533 90.6 182.2C92.0667 180.733 94.1333 180 96.8 180H144.2C159.267 180 170.867 183.733 179 191.2C187.133 198.533 191.2 208.933 191.2 222.4C191.2 235.733 187.133 246.133 179 253.6C170.867 261.067 159.267 264.8 144.2 264.8H104.8V313.8C104.8 316.467 104.133 318.6 102.8 320.2C101.467 321.667 99.4 322.4 96.6 322.4ZM104.8 251H142.2C153 251 161.133 248.6 166.6 243.8C172.2 238.867 175 231.733 175 222.4C175 212.933 172.2 205.8 166.6 201C161.133 196.067 153 193.6 142.2 193.6H104.8V251ZM223.763 322.4C220.963 322.4 218.763 321.667 217.163 320.2C215.696 318.6 214.963 316.333 214.963 313.4V189C214.963 186.067 215.696 183.867 217.163 182.4C218.763 180.8 221.029 180 223.962 180H296.563C298.829 180 300.563 180.6 301.763 181.8C302.963 183 303.563 184.667 303.563 186.8C303.563 189.067 302.963 190.8 301.763 192C300.563 193.2 298.829 193.8 296.563 193.8H231.363V243H292.363C294.629 243 296.363 243.6 297.562 244.8C298.896 246 299.563 247.667 299.563 249.8C299.563 252.067 298.896 253.8 297.562 255C296.363 256.2 294.629 256.8 292.363 256.8H231.363V313.4C231.363 319.4 228.829 322.4 223.763 322.4ZM375.244 322.8C366.444 322.8 358.844 320.533 352.444 316C346.177 311.467 341.977 305.4 339.844 297.8L342.044 295.6V314C342.044 316.667 341.31 318.733 339.844 320.2C338.51 321.667 336.577 322.4 334.044 322.4C331.377 322.4 329.377 321.667 328.044 320.2C326.71 318.733 326.044 316.667 326.044 314V186.8C326.044 184.133 326.71 182.133 328.044 180.8C329.377 179.333 331.377 178.6 334.044 178.6C336.577 178.6 338.577 179.333 340.044 180.8C341.51 182.133 342.244 184.133 342.244 186.8V246.4H339.844C342.11 238.933 346.377 233 352.644 228.6C358.91 224.2 366.444 222 375.244 222C384.044 222 391.644 224.067 398.044 228.2C404.444 232.2 409.377 238 412.844 245.6C416.444 253.067 418.244 262 418.244 272.4C418.244 282.667 416.444 291.6 412.844 299.2C409.377 306.667 404.377 312.467 397.844 316.6C391.444 320.733 383.91 322.8 375.244 322.8ZM371.844 309.8C377.977 309.8 383.244 308.333 387.644 305.4C392.177 302.467 395.644 298.2 398.044 292.6C400.577 287 401.844 280.267 401.844 272.4C401.844 260.267 399.11 251 393.644 244.6C388.31 238.2 381.044 235 371.844 235C365.844 235 360.577 236.467 356.044 239.4C351.51 242.2 347.977 246.4 345.444 252C343.044 257.467 341.844 264.267 341.844 272.4C341.844 284.4 344.577 293.667 350.044 300.2C355.51 306.6 362.777 309.8 371.844 309.8Z" fill="white"/>
<defs>
<linearGradient id="paint0_linear_299_13" x1="0" y1="0" x2="500" y2="500" gradientUnits="userSpaceOnUse">
<stop stop-color="#A756E1"/>
<stop offset="0.8" stop-color="#4E246C"/>
</linearGradient>
</defs>
</svg>
